<svg xmlns="http://www.w3.org/2000/svg" version="1.1" xmlns:xlink="http://www.w3.org/1999/xlink" xmlns:svgjs="http://svgjs.dev/svgjs" width="1000" height="1000" viewBox="0 0 1000 1000"><rect width="1000" height="1000" fill="#ffffff"></rect><g transform="matrix(0.7,0,0,0.7,149.5757576041276,314.22148872543823)"><svg viewBox="0 0 396 211" data-background-color="#ffffff" preserveAspectRatio="xMidYMid meet" height="532" width="1000" xmlns="http://www.w3.org/2000/svg" xmlns:xlink="http://www.w3.org/1999/xlink"><g id="tight-bounds" transform="matrix(1,0,0,1,0.24000001604929366,-0.23881342928964955)"><svg viewBox="0 0 395.52 211.4776268585793" height="211.4776268585793" width="395.52"><g><svg viewBox="0 0 395.52 211.4776268585793" height="211.4776268585793" width="395.52"><g transform="matrix(1,0,0,1,0,153.65367893863376)"><svg viewBox="0 0 395.52 57.82394791994553" height="57.82394791994553" width="395.52"><g id="textblocktransform"><svg viewBox="0 0 395.52 57.82394791994553" height="57.82394791994553" width="395.52" id="textblock"><g><svg viewBox="0 0 395.52 31.18747447243022" height="31.18747447243022" width="395.52"><g transform="matrix(1,0,0,1,0,0)"><svg width="395.52" viewBox="0.9000000357627869 -34.349998474121094 440.6700134277344 34.75" height="31.18747447243022" data-palette-color="#729343"><g class="undefined-text-0" data-fill-palette-color="primary" id="text-0"><path d="M23.15-33.7L23.15-30.15 14.05-30.15 14.05 0 10 0 10-30.15 0.9-30.15 0.9-33.7 23.15-33.7ZM56.75-17L56.75-17Q56.75-9.05 52.67-4.33 48.6 0.4 41.65 0.4L41.65 0.4Q34.8 0.4 30.65-4.35 26.5-9.1 26.5-17L26.5-17Q26.5-24.95 30.57-29.65 34.65-34.35 41.6-34.35L41.6-34.35Q48.7-34.35 52.72-29.68 56.75-25 56.75-17ZM30.75-17L30.75-17Q30.75-10.75 33.72-7.1 36.7-3.45 41.65-3.45L41.65-3.45Q46.8-3.45 49.62-7.05 52.45-10.65 52.45-17 52.45-23.35 49.6-26.95 46.75-30.55 41.6-30.55L41.6-30.55Q36.5-30.55 33.62-26.93 30.75-23.3 30.75-17ZM71.64-30.2L71.64-30.2 67-30.2 67-16.75 72.09-16.75Q75.55-16.75 77.37-18.63 79.19-20.5 79.19-23.45L79.19-23.45Q79.19-30.2 71.64-30.2ZM72.25-13.3L71.84-13.3 67-13.3 67 0 62.95 0 62.95-33.7 71.39-33.7Q77.25-33.7 80.27-30.95 83.3-28.2 83.3-23.35L83.3-23.35Q83.19-19.85 81.44-17.4 79.69-14.95 76.5-13.95L76.5-13.95 85.34 0 80.5 0 72.25-13.3ZM119.14-17L119.14-17Q119.14-9.05 115.07-4.33 110.99 0.4 104.04 0.4L104.04 0.4Q97.19 0.4 93.04-4.35 88.89-9.1 88.89-17L88.89-17Q88.89-24.95 92.97-29.65 97.04-34.35 103.99-34.35L103.99-34.35Q111.09-34.35 115.12-29.68 119.14-25 119.14-17ZM93.14-17L93.14-17Q93.14-10.75 96.12-7.1 99.09-3.45 104.04-3.45L104.04-3.45Q109.19-3.45 112.02-7.05 114.84-10.65 114.84-17 114.84-23.35 111.99-26.95 109.14-30.55 103.99-30.55L103.99-30.55Q98.89-30.55 96.02-26.93 93.14-23.3 93.14-17ZM129.39-14.2L129.39 0 125.34 0 125.34-33.7 130.44-33.7 138.89-19.5 147.44-4.9Q147.24-9.75 147.24-19.45L147.24-19.45 147.24-33.7 151.29-33.7 151.29 0 146.19 0 137.74-14.1Q135.19-18.35 133.04-22.03 130.89-25.7 129.99-27.3L129.99-27.3 129.14-28.85Q129.39-23.65 129.39-14.2L129.39-14.2ZM178.29-33.7L178.29-30.15 169.19-30.15 169.19 0 165.14 0 165.14-30.15 156.04-30.15 156.04-33.7 178.29-33.7ZM211.89-17L211.89-17Q211.89-9.05 207.81-4.33 203.74 0.4 196.79 0.4L196.79 0.4Q189.94 0.4 185.79-4.35 181.64-9.1 181.64-17L181.64-17Q181.64-24.95 185.71-29.65 189.79-34.35 196.74-34.35L196.74-34.35Q203.84-34.35 207.86-29.68 211.89-25 211.89-17ZM185.89-17L185.89-17Q185.89-10.75 188.86-7.1 191.84-3.45 196.79-3.45L196.79-3.45Q201.94-3.45 204.76-7.05 207.59-10.65 207.59-17 207.59-23.35 204.74-26.95 201.89-30.55 196.74-30.55L196.74-30.55Q191.64-30.55 188.76-26.93 185.89-23.3 185.89-17ZM222.73-13.3L221.78 0 217.73 0 220.18-33.7 225.33-33.7 229.78-21.4 235.18-5.7Q238.08-13.9 240.88-21.4L240.88-21.4 245.53-33.7 250.68-33.7 253.63 0 249.58 0 248.43-13.3 247.23-28.25Q244.58-20.85 241.78-13.3L241.78-13.3 237.08-0.75 233.23-0.75 228.78-13.3 223.68-27.95Q223.68-26 222.73-13.3L222.73-13.3ZM279.73-3.55L279.73 0 260.93 0 260.93-33.7 279.48-33.7 279.48-30.15 264.98-30.15 264.98-18.6 277.78-18.6 277.78-15.05 264.98-15.05 264.98-3.55 279.73-3.55ZM305.28-33.7L305.28-30.15 296.18-30.15 296.18 0 292.13 0 292.13-30.15 283.03-30.15 283.03-33.7 305.28-33.7ZM329.58-8.95L329.58-8.95Q329.58-4.5 326.53-2.08 323.48 0.35 318.68 0.35L318.68 0.35Q313.38 0.35 309.68-1.8L309.68-1.8 309.68-6.15Q313.33-3.4 318.58-3.4L318.58-3.4Q321.73-3.4 323.53-4.8 325.33-6.2 325.33-8.85L325.33-8.85Q325.33-9.95 324.9-10.83 324.48-11.7 323.5-12.43 322.53-13.15 321.65-13.63 320.78-14.1 319.28-14.8L319.28-14.8Q318.98-14.95 318.38-15.2L318.38-15.2Q316.23-16.15 315.1-16.75 313.98-17.35 312.45-18.53 310.93-19.7 310.23-21.25 309.53-22.8 309.53-24.85L309.53-24.85Q309.53-29.15 312.6-31.58 315.68-34 320.33-34L320.33-34Q324.68-34 327.73-32.45L327.73-32.45 327.73-28.2Q324.68-30.2 320.43-30.2L320.43-30.2Q317.38-30.2 315.58-28.78 313.78-27.35 313.78-25.05L313.78-25.05Q313.78-23.85 314.25-22.9 314.73-21.95 315.93-21.13 317.13-20.3 317.98-19.88 318.83-19.45 320.63-18.65L320.63-18.65Q322.33-17.9 323.23-17.48 324.13-17.05 325.55-16.13 326.98-15.2 327.7-14.33 328.43-13.45 329-12.03 329.58-10.6 329.58-8.95ZM355.57-33.7L355.57-30.15 346.47-30.15 346.47 0 342.42 0 342.42-30.15 333.32-30.15 333.32-33.7 355.57-33.7ZM389.17-17L389.17-17Q389.17-9.05 385.1-4.33 381.02 0.4 374.07 0.4L374.07 0.4Q367.22 0.4 363.07-4.35 358.92-9.1 358.92-17L358.92-17Q358.92-24.95 363-29.65 367.07-34.35 374.02-34.35L374.02-34.35Q381.12-34.35 385.15-29.68 389.17-25 389.17-17ZM363.17-17L363.17-17Q363.17-10.75 366.15-7.1 369.12-3.45 374.07-3.45L374.07-3.45Q379.22-3.45 382.05-7.05 384.87-10.65 384.87-17 384.87-23.35 382.02-26.95 379.17-30.55 374.02-30.55L374.02-30.55Q368.92-30.55 366.05-26.93 363.17-23.3 363.17-17ZM404.07-30.2L404.07-30.2 399.42-30.2 399.42-16.75 404.52-16.75Q407.97-16.75 409.79-18.63 411.62-20.5 411.62-23.45L411.62-23.45Q411.62-30.2 404.07-30.2ZM404.67-13.3L404.27-13.3 399.42-13.3 399.42 0 395.37 0 395.37-33.7 403.82-33.7Q409.67-33.7 412.69-30.95 415.72-28.2 415.72-23.35L415.72-23.35Q415.62-19.85 413.87-17.4 412.12-14.95 408.92-13.95L408.92-13.95 417.77 0 412.92 0 404.67-13.3ZM441.57-3.55L441.57 0 422.77 0 422.77-33.7 441.32-33.7 441.32-30.15 426.82-30.15 426.82-18.6 439.62-18.6 439.62-15.05 426.82-15.05 426.82-3.55 441.57-3.55Z" fill="#729343" data-fill-palette-color="primary"></path></g></svg></g></svg></g><g transform="matrix(1,0,0,1,113.22157278681402,38.55008869598366)"><svg viewBox="0 0 169.07685442637194 19.273859223961875" height="19.273859223961875" width="169.07685442637194"><g transform="matrix(1,0,0,1,0,0)"><svg width="169.07685442637194" viewBox="0.9000000357627869 -37 412.25 47" height="19.273859223961875" data-palette-color="#096a2e"><path d="M13.5-11.4L17.95-25.6 20.65-25.6 10.05 7.55Q9.6 9 8.95 9.5 8.3 10 6.75 10L6.75 10 3.4 10 3.4 7.6 7.55 7.6 9.45 1.2 0.9-25.6 3.65-25.6 8.1-11.4 10.6-2.4 11-2.4 13.5-11.4ZM33.7 0.6L33.7 0.6Q31.45 0.6 29.57-0.18 27.7-0.95 26.35-2.58 25-4.2 24.27-6.73 23.55-9.25 23.55-12.8L23.55-12.8Q23.55-16.35 24.27-18.88 25-21.4 26.35-23.03 27.7-24.65 29.57-25.43 31.45-26.2 33.7-26.2L33.7-26.2Q35.95-26.2 37.82-25.43 39.7-24.65 41.05-23.03 42.4-21.4 43.12-18.88 43.85-16.35 43.85-12.8L43.85-12.8Q43.85-9.25 43.12-6.73 42.4-4.2 41.05-2.58 39.7-0.95 37.82-0.18 35.95 0.6 33.7 0.6ZM33.7-1.85L33.7-1.85Q37.15-1.85 39.02-4.08 40.9-6.3 40.9-10.55L40.9-10.55 40.9-15.05Q40.9-19.3 39.02-21.53 37.15-23.75 33.7-23.75L33.7-23.75Q30.25-23.75 28.37-21.53 26.5-19.3 26.5-15.05L26.5-15.05 26.5-10.55Q26.5-6.3 28.37-4.08 30.25-1.85 33.7-1.85ZM64.85 0L64.85-4.05 64.45-4.05Q63.75-1.85 62.02-0.63 60.3 0.6 57.55 0.6L57.55 0.6Q54 0.6 52.07-1.68 50.15-3.95 50.15-8.5L50.15-8.5 50.15-25.6 52.9-25.6 52.9-8.65Q52.9-5.4 54.3-3.63 55.7-1.85 58.55-1.85L58.55-1.85Q59.85-1.85 61-2.25 62.15-2.65 63-3.43 63.85-4.2 64.35-5.33 64.85-6.45 64.85-7.85L64.85-7.85 64.85-25.6 67.6-25.6 67.6 0 64.85 0ZM78.44 0L75.69 0 75.69-25.6 78.44-25.6 78.44-20.95 78.84-20.95Q79.54-23.1 81.19-24.35 82.84-25.6 85.39-25.6L85.39-25.6 86.99-25.6 86.99-22.9 84.69-22.9Q81.94-22.9 80.19-21.4 78.44-19.9 78.44-17.25L78.44-17.25 78.44 0ZM103.84-32.65L103.84-32.65Q102.84-32.65 102.41-33.1 101.99-33.55 101.99-34.3L101.99-34.3 101.99-35Q101.99-35.75 102.41-36.2 102.84-36.65 103.84-36.65L103.84-36.65Q104.84-36.65 105.26-36.2 105.69-35.75 105.69-35L105.69-35 105.69-34.3Q105.69-33.55 105.26-33.1 104.84-32.65 103.84-32.65ZM102.44 0L102.44-25.6 105.19-25.6 105.19 0 102.44 0ZM122.19 0L117.54 0Q115.99 0 115.29-0.68 114.59-1.35 114.59-2.9L114.59-2.9 114.59-23.2 110.64-23.2 110.64-25.6 113.29-25.6Q114.24-25.6 114.54-26.08 114.84-26.55 114.84-27.5L114.84-27.5 114.84-32.75 117.34-32.75 117.34-25.6 122.44-25.6 122.44-23.2 117.34-23.2 117.34-2.4 122.19-2.4 122.19 0ZM136.73 0.6L136.73 0.6Q134.48 0.6 132.61-0.18 130.73-0.95 129.38-2.58 128.03-4.2 127.31-6.73 126.58-9.25 126.58-12.8L126.58-12.8Q126.58-16.35 127.31-18.88 128.03-21.4 129.38-23.03 130.73-24.65 132.61-25.43 134.48-26.2 136.73-26.2L136.73-26.2Q141.28-26.2 143.86-23.05 146.43-19.9 146.43-13.05L146.43-13.05 146.43-12.3 129.53-12.3 129.53-10.55Q129.53-6.3 131.41-4.08 133.28-1.85 136.73-1.85L136.73-1.85Q139.58-1.85 141.31-3.13 143.03-4.4 144.03-6.95L144.03-6.95 145.93-5.65Q144.83-2.7 142.61-1.05 140.38 0.6 136.73 0.6ZM136.73-23.85L136.73-23.85Q133.28-23.85 131.41-21.58 129.53-19.3 129.53-15.05L129.53-15.05 129.53-14.4 143.48-14.4 143.48-15.05Q143.48-19.3 141.81-21.58 140.13-23.85 136.73-23.85ZM155.63 0L152.88 0 152.88-25.6 155.63-25.6 155.63-21.55 156.03-21.55Q156.73-23.75 158.33-24.98 159.93-26.2 162.63-26.2L162.63-26.2Q165.13-26.2 166.86-24.98 168.58-23.75 169.33-21.3L169.33-21.3 169.83-21.3Q170.53-23.7 172.41-24.95 174.28-26.2 176.98-26.2L176.98-26.2Q180.38-26.2 182.36-23.93 184.33-21.65 184.33-17.1L184.33-17.1 184.33 0 181.58 0 181.58-16.95Q181.58-20.2 180.18-21.98 178.78-23.75 176.08-23.75L176.08-23.75Q173.53-23.75 171.76-22.18 169.98-20.6 169.98-17.75L169.98-17.75 169.98 0 167.23 0 167.23-16.95Q167.23-20.2 165.83-21.98 164.43-23.75 161.73-23.75L161.73-23.75Q159.18-23.75 157.41-22.18 155.63-20.6 155.63-17.75L155.63-17.75 155.63 0ZM198.93 0.6L198.93 0.6Q195.93 0.6 193.78-0.58 191.63-1.75 190.03-4.15L190.03-4.15 191.98-5.75Q193.38-3.65 195.03-2.73 196.68-1.8 198.93-1.8L198.93-1.8Q201.48-1.8 202.98-3.05 204.48-4.3 204.48-6.7L204.48-6.7Q204.48-8.8 203.48-9.98 202.48-11.15 199.88-11.6L199.88-11.6 197.88-11.95Q194.38-12.55 192.6-14.18 190.83-15.8 190.83-19.1L190.83-19.1Q190.83-22.75 193.03-24.48 195.23-26.2 198.73-26.2L198.73-26.2Q201.38-26.2 203.33-25.28 205.28-24.35 206.73-22.35L206.73-22.35 204.93-20.7Q202.63-23.8 198.78-23.8L198.78-23.8Q196.23-23.8 194.88-22.65 193.53-21.5 193.53-19.2L193.53-19.2Q193.53-16.95 194.63-15.9 195.73-14.85 198.28-14.4L198.28-14.4 200.23-14.05Q203.88-13.4 205.53-11.75 207.18-10.1 207.18-6.95L207.18-6.95Q207.18-3.35 205.03-1.38 202.88 0.6 198.93 0.6ZM215.28-4.25L215.28-4.25Q217.57-4.25 217.57-2.2L217.57-2.2 217.57-1.55Q217.57 0.55 216.45 2.88 215.32 5.2 213.57 6.9L213.57 6.9 211.32 6.9Q212.78 5.25 213.6 3.68 214.43 2.1 214.68 0.4L214.68 0.4Q212.97 0.1 212.97-1.55L212.97-1.55 212.97-2.2Q212.97-4.25 215.28-4.25ZM250.82 0L250.82-4.05 250.37-4.05Q249.67-1.7 247.92-0.55 246.17 0.6 243.62 0.6L243.62 0.6Q238.97 0.6 236.57-2.83 234.17-6.25 234.17-12.8L234.17-12.8Q234.17-19.35 236.57-22.78 238.97-26.2 243.62-26.2L243.62-26.2Q246.17-26.2 247.92-25.05 249.67-23.9 250.37-21.55L250.37-21.55 250.82-21.55 250.82-37 253.57-37 253.57 0 250.82 0ZM244.32-1.85L244.32-1.85Q245.67-1.85 246.84-2.25 248.02-2.65 248.92-3.4 249.82-4.15 250.32-5.2 250.82-6.25 250.82-7.55L250.82-7.55 250.82-18.05Q250.82-19.35 250.32-20.4 249.82-21.45 248.92-22.2 248.02-22.95 246.84-23.35 245.67-23.75 244.32-23.75L244.32-23.75Q240.82-23.75 238.97-21.45 237.12-19.15 237.12-15.05L237.12-15.05 237.12-10.55Q237.12-6.45 238.97-4.15 240.82-1.85 244.32-1.85ZM270.12 0.6L270.12 0.6Q267.87 0.6 265.99-0.18 264.12-0.95 262.77-2.58 261.42-4.2 260.69-6.73 259.97-9.25 259.97-12.8L259.97-12.8Q259.97-16.35 260.69-18.88 261.42-21.4 262.77-23.03 264.12-24.65 265.99-25.43 267.87-26.2 270.12-26.2L270.12-26.2Q274.67-26.2 277.24-23.05 279.82-19.9 279.82-13.05L279.82-13.05 279.82-12.3 262.92-12.3 262.92-10.55Q262.92-6.3 264.79-4.08 266.67-1.85 270.12-1.85L270.12-1.85Q272.97-1.85 274.69-3.13 276.42-4.4 277.42-6.95L277.42-6.95 279.32-5.65Q278.22-2.7 275.99-1.05 273.77 0.6 270.12 0.6ZM270.12-23.85L270.12-23.85Q266.67-23.85 264.79-21.58 262.92-19.3 262.92-15.05L262.92-15.05 262.92-14.4 276.87-14.4 276.87-15.05Q276.87-19.3 275.19-21.58 273.52-23.85 270.12-23.85ZM292.47 0L289.17 0Q287.62 0 286.94-0.68 286.26-1.35 286.26-2.9L286.26-2.9 286.26-37 289.01-37 289.01-2.4 292.47-2.4 292.47 0ZM299.61-32.65L299.61-32.65Q298.61-32.65 298.19-33.1 297.76-33.55 297.76-34.3L297.76-34.3 297.76-35Q297.76-35.75 298.19-36.2 298.61-36.65 299.61-36.65L299.61-36.65Q300.61-36.65 301.04-36.2 301.46-35.75 301.46-35L301.46-35 301.46-34.3Q301.46-33.55 301.04-33.1 300.61-32.65 299.61-32.65ZM298.21 0L298.21-25.6 300.96-25.6 300.96 0 298.21 0ZM317.61 0L314.21 0 306.01-25.6 308.76-25.6 313.21-11.4 315.71-2.4 316.11-2.4 318.61-11.4 323.06-25.6 325.76-25.6 317.61 0ZM338.81 0.6L338.81 0.6Q336.56 0.6 334.68-0.18 332.81-0.95 331.46-2.58 330.11-4.2 329.38-6.73 328.66-9.25 328.66-12.8L328.66-12.8Q328.66-16.35 329.38-18.88 330.11-21.4 331.46-23.03 332.81-24.65 334.68-25.43 336.56-26.2 338.81-26.2L338.81-26.2Q343.36-26.2 345.93-23.05 348.51-19.9 348.51-13.05L348.51-13.05 348.51-12.3 331.61-12.3 331.61-10.55Q331.61-6.3 333.48-4.08 335.36-1.85 338.81-1.85L338.81-1.85Q341.66-1.85 343.38-3.13 345.11-4.4 346.11-6.95L346.11-6.95 348.01-5.65Q346.91-2.7 344.68-1.05 342.46 0.6 338.81 0.6ZM338.81-23.85L338.81-23.85Q335.36-23.85 333.48-21.58 331.61-19.3 331.61-15.05L331.61-15.05 331.61-14.4 345.56-14.4 345.56-15.05Q345.56-19.3 343.88-21.58 342.21-23.85 338.81-23.85ZM357.7 0L354.95 0 354.95-25.6 357.7-25.6 357.7-20.95 358.11-20.95Q358.81-23.1 360.45-24.35 362.11-25.6 364.66-25.6L364.66-25.6 366.25-25.6 366.25-22.9 363.95-22.9Q361.2-22.9 359.45-21.4 357.7-19.9 357.7-17.25L357.7-17.25 357.7 0ZM379.35 0.6L379.35 0.6Q377.1 0.6 375.23-0.18 373.35-0.95 372-2.58 370.65-4.2 369.93-6.73 369.2-9.25 369.2-12.8L369.2-12.8Q369.2-16.35 369.93-18.88 370.65-21.4 372-23.03 373.35-24.65 375.23-25.43 377.1-26.2 379.35-26.2L379.35-26.2Q383.9-26.2 386.48-23.05 389.05-19.9 389.05-13.05L389.05-13.05 389.05-12.3 372.15-12.3 372.15-10.55Q372.15-6.3 374.03-4.08 375.9-1.85 379.35-1.85L379.35-1.85Q382.2-1.85 383.93-3.13 385.65-4.4 386.65-6.95L386.65-6.95 388.55-5.65Q387.45-2.7 385.23-1.05 383 0.6 379.35 0.6ZM379.35-23.85L379.35-23.85Q375.9-23.85 374.03-21.58 372.15-19.3 372.15-15.05L372.15-15.05 372.15-14.4 386.1-14.4 386.1-15.05Q386.1-19.3 384.43-21.58 382.75-23.85 379.35-23.85ZM410.4 0L410.4-4.05 409.95-4.05Q409.25-1.7 407.5-0.55 405.75 0.6 403.2 0.6L403.2 0.6Q398.55 0.6 396.15-2.83 393.75-6.25 393.75-12.8L393.75-12.8Q393.75-19.35 396.15-22.78 398.55-26.2 403.2-26.2L403.2-26.2Q405.75-26.2 407.5-25.05 409.25-23.9 409.95-21.55L409.95-21.55 410.4-21.55 410.4-37 413.15-37 413.15 0 410.4 0ZM403.9-1.85L403.9-1.85Q405.25-1.85 406.42-2.25 407.6-2.65 408.5-3.4 409.4-4.15 409.9-5.2 410.4-6.25 410.4-7.55L410.4-7.55 410.4-18.05Q410.4-19.35 409.9-20.4 409.4-21.45 408.5-22.2 407.6-22.95 406.42-23.35 405.25-23.75 403.9-23.75L403.9-23.75Q400.4-23.75 398.55-21.45 396.7-19.15 396.7-15.05L396.7-15.05 396.7-10.55Q396.7-6.45 398.55-4.15 400.4-1.85 403.9-1.85Z" opacity="1" transform="matrix(1,0,0,1,0,0)" fill="#096a2e" class="undefined-text-1" data-fill-palette-color="secondary" id="text-1"></path></svg></g></svg></g></svg></g></svg></g><g transform="matrix(1,0,0,1,128.29577475423656,0)"><svg viewBox="0 0 138.9284504915269 138.9284504915269" height="138.9284504915269" width="138.9284504915269"><g><svg></svg></g><g id="icon-0"><svg viewBox="0 0 138.9284504915269 138.9284504915269" height="138.9284504915269" width="138.9284504915269"><g><path d="M0 69.464c0-38.364 31.1-69.464 69.464-69.464 38.364 0 69.464 31.1 69.464 69.464 0 38.364-31.1 69.464-69.464 69.464-38.364 0-69.464-31.1-69.464-69.464zM69.464 136.116c36.811 0 66.652-29.841 66.652-66.652 0-36.811-29.841-66.652-66.652-66.651-36.811 0-66.652 29.841-66.651 66.651 0 36.811 29.841 66.652 66.651 66.652z" data-fill-palette-color="accent" fill="#096a2e" stroke="transparent"></path></g><g transform="matrix(1,0,0,1,28.410443791120507,30.97630513203569)"><svg viewBox="0 0 82.10756290928587 76.9758402274555" height="76.9758402274555" width="82.10756290928587"><g><svg xmlns="http://www.w3.org/2000/svg" xmlns:xlink="http://www.w3.org/1999/xlink" version="1.1" x="0" y="0" viewBox="0 2 32 30" style="enable-background:new 0 0 32 32;" xml:space="preserve" height="76.9758402274555" width="82.10756290928587" class="icon-s-0" data-fill-palette-color="accent" id="s-0"><g fill="#096a2e" data-fill-palette-color="accent"><path d="M9.4 13.8c-0.264 0-0.519-0.104-0.707-0.293l-2.4-2.4c-0.391-0.391-0.391-1.023 0-1.414s1.023-0.391 1.414 0l1.584 1.584L12.2 7.4c0.331-0.44 0.957-0.532 1.4-0.2 0.442 0.331 0.531 0.958 0.2 1.4l-3.6 4.8c-0.174 0.232-0.44 0.377-0.729 0.397C9.447 13.799 9.423 13.8 9.4 13.8z" fill="#096a2e" data-fill-palette-color="accent"></path><path d="M8 32c-2.206 0-4-1.794-4-4s1.794-4 4-4 4 1.794 4 4S10.206 32 8 32zM8 26c-1.103 0-2 0.897-2 2s0.897 2 2 2 2-0.897 2-2S9.103 26 8 26z" fill="#096a2e" data-fill-palette-color="accent"></path><path d="M25 32c-2.206 0-4-1.794-4-4s1.794-4 4-4 4 1.794 4 4S27.206 32 25 32zM25 26c-1.103 0-2 0.897-2 2s0.897 2 2 2 2-0.897 2-2S26.103 26 25 26z" fill="#096a2e" data-fill-palette-color="accent"></path><path d="M5 29H2.499C1.121 29 0 27.879 0 26.501V11.495C0 10.119 1.119 9 2.495 9c0.552 0 1 0.448 1 1s-0.448 1-1 1C2.222 11 2 11.222 2 11.495v15.006C2 26.776 2.224 27 2.499 27H5c0.552 0 1 0.447 1 1S5.552 29 5 29z" fill="#096a2e" data-fill-palette-color="accent"></path><path d="M29.509 29H28c-0.553 0-1-0.447-1-1s0.447-1 1-1h1.509C29.779 27 30 26.779 30 26.509v-7.193c0-0.538-0.237-1.045-0.65-1.389l-4.209-3.508C24.816 14.149 24.405 14 23.983 14H19c-0.553 0-1-0.448-1-1s0.447-1 1-1h4.983c0.889 0 1.754 0.313 2.438 0.882l4.209 3.508C31.5 17.115 32 18.182 32 19.315v7.193C32 27.883 30.883 29 29.509 29z" fill="#096a2e" data-fill-palette-color="accent"></path><path d="M22 29H12c-0.552 0-1-0.447-1-1s0.448-1 1-1h10c0.553 0 1 0.447 1 1S22.553 29 22 29z" fill="#096a2e" data-fill-palette-color="accent"></path><path d="M10 18c-4.411 0-8-3.589-8-8s3.589-8 8-8 8 3.589 8 8S14.411 18 10 18zM10 4c-3.309 0-6 2.691-6 6s2.691 6 6 6 6-2.691 6-6S13.309 4 10 4z" fill="#096a2e" data-fill-palette-color="accent"></path><path d="M19 29c-0.553 0-1-0.447-1-1V11.495C18 11.222 17.778 11 17.505 11c-0.552 0-1-0.448-1-1s0.448-1 1-1C18.881 9 20 10.119 20 11.495V28C20 28.553 19.553 29 19 29z" fill="#096a2e" data-fill-palette-color="accent"></path></g></svg></g></svg></g></svg></g></svg></g><g></g></svg></g><defs></defs></svg><rect width="395.52" height="211.4776268585793" fill="none" stroke="none" visibility="hidden"></rect></g></svg></g></svg>